<svg id="ePhbAzcflop1" xmlns="http://www.w3.org/2000/svg" xmlns:xlink="http://www.w3.org/1999/xlink" viewBox="0 0 1920 1080" shape-rendering="geometricPrecision" text-rendering="geometricPrecision"><path d="M0,0h960c2.527005,82.466929,120.523306,147.30801,219.752292,145.922471c100.299982-13.485934,206.441602,46.786585,194.563294,138.97378-4.828905,75.689504,64.729414,155.806575,191.08895,125.076403c117.197063-33.796447,210.020488,41.052996,206.7235,130.027344.836003,55.745649,36.04596,129.091289,147.871964,107.965257v432.034742h-960c-4.348866-72.830025-83.146468-141.479631-174.585813-121.080907-75.730629,9.104982-151.292031-48.044728-144.185299-121.602059c30.681225-78.446606-34.199376-138.46189-123.339231-125.076403-87.70732,6.46994-167.975745-60.637267-145.922471-147.659643c19.373709-68.217907-31.087775-133.733545-111.179025-123.339232-71.224063-19.108894-144.910583-79.214511-123.339231-156.345502C136.811982,199.663807,49.680058,163.919572,0,145.922471L0,0Z" transform="translate(-8.522556 0.000001)" fill="#2a4f9a" stroke-width="3.84"/><ellipse rx="8.685861" ry="9.554448" transform="matrix(.992992 0.118186-.118186 0.992992 59.545075 472.469628)" fill="#1a1a1b" stroke-width="0"/><ellipse rx="8.685861" ry="9.554448" transform="matrix(.992992 0.118186-.118186 0.992992 76.795048 612.014201)" fill="#1a1a1b" stroke-width="0"/><ellipse rx="8.685861" ry="9.554448" transform="matrix(.992992 0.118186-.118186 0.992992 1693.412597 119.984378)" fill="#1a1a1b" stroke-width="0"/><ellipse rx="8.685861" ry="9.554448" transform="matrix(.992992 0.118186-.118186 0.992992 1856.099912 137.932807)" fill="#1a1a1b" stroke-width="0"/><ellipse rx="8.685861" ry="9.554448" transform="matrix(.992992 0.118186-.118186 0.992992 1712.920966 357.077099)" fill="#1a1a1b" stroke-width="0"/><ellipse rx="8.685861" ry="9.554448" transform="matrix(.992992 0.118186-.118186 0.992992 1712.920966 223.160294)" fill="#1a1a1b" stroke-width="0"/><ellipse rx="8.685861" ry="9.554448" transform="matrix(.992992 0.118186-.118186 0.992992 1543.620468 152.021519)" fill="#1a1a1b" stroke-width="0"/><ellipse rx="8.685861" ry="9.554448" transform="matrix(.992992 0.118186-.118186 0.992992 1303.838274 117.931292)" fill="#1a1a1b" stroke-width="0"/><ellipse rx="8.685861" ry="9.554448" transform="matrix(.992992 0.118186-.118186 0.992992 1856.099912 470.416541)" fill="#1a1a1b" stroke-width="0"/><ellipse rx="8.685861" ry="9.554448" transform="matrix(.992992 0.118186-.118186 0.992992 1825.418707 360.156729)" fill="#1a1a1b" stroke-width="0"/><ellipse rx="8.685861" ry="9.554448" transform="matrix(.992992 0.118186-.118186 0.992992 1545.878864 306.681345)" fill="#1a1a1b" stroke-width="0"/><ellipse rx="8.685861" ry="9.554448" transform="matrix(.992992 0.118186-.118186 0.992992 1395.881877 225.21338)" fill="#1a1a1b" stroke-width="0"/><ellipse rx="8.685861" ry="9.554448" transform="matrix(.992992 0.118186-.118186 0.992992 100.411612 368.617672)" fill="#1a1a1b" stroke-width="0"/><ellipse rx="8.685861" ry="9.554448" transform="matrix(.992992 0.118186-.118186 0.992992 495.099471 783.944485)" fill="#1a1a1b" stroke-width="0"/><ellipse rx="8.685861" ry="9.554448" transform="matrix(.992992 0.118186-.118186 0.992992 630.228746 941.558791)" fill="#1a1a1b" stroke-width="0"/><ellipse rx="8.685861" ry="9.554448" transform="matrix(.992992 0.118186-.118186 0.992992 599.547541 1021.096898)" fill="#1a1a1b" stroke-width="0"/><ellipse rx="8.685861" ry="9.554448" transform="matrix(.992992 0.118186-.118186 0.992992 838.179111 1023.149985)" fill="#1a1a1b" stroke-width="0"/><ellipse rx="8.685861" ry="9.554448" transform="matrix(.992992 0.118186-.118186 0.992992 291.031011 593.03923)" fill="#1a1a1b" stroke-width="0"/><ellipse rx="8.685861" ry="9.554448" transform="matrix(.992992 0.118186-.118186 0.992992 37.058835 327.709403)" fill="#1a1a1b" stroke-width="0"/><ellipse rx="8.685861" ry="9.554448" transform="matrix(.992992 0.118186-.118186 0.992992 83.161639 244.188352)" fill="#1a1a1b" stroke-width="0"/><ellipse rx="8.685861" ry="9.554448" transform="matrix(.992992 0.118186-.118186 0.992992 1673.904228 478.877483)" fill="#fff" stroke-width="0"/><ellipse rx="8.685861" ry="9.554448" transform="matrix(.992992 0.118186-.118186 0.992992 597.289145 255.728924)" fill="#fff" stroke-width="0"/><ellipse rx="8.685861" ry="9.554448" transform="matrix(.992992 0.118186-.118186 0.992992 790.536208 874.159577)" fill="#fff" stroke-width="0"/><ellipse rx="8.685861" ry="9.554448" transform="matrix(.992992 0.118186-.118186 0.992992 194.794617 304.628258)" fill="#fff" stroke-width="0"/><ellipse rx="8.685861" ry="9.554448" transform="matrix(.992992 0.118186-.118186 0.992992 542.253545 47.961196)" fill="#fff" stroke-width="0"/><ellipse rx="8.685861" ry="9.554448" transform="matrix(.992992 0.118186-.118186 0.992992 788.277812 423.11509)" fill="#fff" stroke-width="0"/><ellipse rx="8.685861" ry="9.554448" transform="matrix(.992992 0.118186-.118186 0.992992 1695.670993 821.894428)" fill="#fff" stroke-width="0"/><ellipse rx="8.685861" ry="9.554448" transform="matrix(.992992 0.118186-.118186 0.992992 1222.547917 1003.14847)" fill="#fff" stroke-width="0"/><ellipse rx="8.685861" ry="9.554448" transform="matrix(.992992 0.118186-.118186 0.992992 978.38747 317.195374)" fill="#fff" stroke-width="0"/><ellipse rx="8.685861" ry="9.554448" transform="matrix(.992992 0.118186-.118186 0.992992 155.777879 77.450196)" fill="#fff" stroke-width="0"/><ellipse rx="8.685861" ry="9.554448" transform="matrix(.992992 0.118186-.118186 0.992992 924.336685 646.773515)" fill="#fff" stroke-width="0"/><ellipse rx="8.685861" ry="9.554448" transform="matrix(.992992 0.118186-.118186 0.992992 818.670742 68.989254)" fill="#fff" stroke-width="0"/><ellipse rx="8.685861" ry="9.554448" transform="matrix(.992992 0.118186-.118186 0.992992 1333.433132 484.0102)" fill="#fff" stroke-width="0"/><ellipse rx="8.685861" ry="9.554448" transform="matrix(.992992 0.118186-.118186 0.992992 431.746694 600.473629)" fill="#fff" stroke-width="0"/><ellipse rx="8.685861" ry="9.554448" transform="matrix(.992992 0.118186-.118186 0.992992 251.724819 782.917942)" fill="#1a1a1b" stroke-width="0"/><ellipse rx="8.685861" ry="9.554448" transform="matrix(.992992 0.118186-.118186 0.992992 175.286248 522.023682)" fill="#1a1a1b" stroke-width="0"/><ellipse rx="8.685861" ry="9.554448" transform="matrix(.992992 0.118186-.118186 0.992992 84.290837 802.919457)" fill="#1a1a1b" stroke-width="0"/><ellipse rx="8.685861" ry="9.554448" transform="matrix(.992992 0.118186-.118186 0.992992 67.040864 943.611878)" fill="#1a1a1b" stroke-width="0"/><ellipse rx="8.685861" ry="9.554448" transform="matrix(.992992 0.118186-.118186 0.992992 260.349805 995.877803)" fill="#1a1a1b" stroke-width="0"/><ellipse rx="8.685861" ry="9.554448" transform="matrix(.992992 0.118186-.118186 0.992992 485.345286 952.07282)" fill="#1a1a1b" stroke-width="0"/></svg>
